<svg width="14" height="15" viewBox="0 0 14 15" fill="none" xmlns="http://www.w3.org/2000/svg">
<path d="M6.38266 1.25537C6.59599 0.692707 7.40332 0.692707 7.61732 1.25537L8.99732 5.07804C9.09399 5.33137 9.33999 5.50004 9.61466 5.50004H13.006C13.6327 5.50004 13.906 6.28004 13.4133 6.66204L11 8.83337C10.8919 8.91648 10.8129 9.03169 10.7743 9.16248C10.7358 9.29327 10.7396 9.43291 10.7853 9.56137L11.6667 13.2967C11.8813 13.8967 11.1867 14.412 10.6613 14.0427L7.38332 11.9627C7.27106 11.8838 7.1372 11.8415 6.99999 11.8415C6.86278 11.8415 6.72891 11.8838 6.61666 11.9627L3.33866 14.0427C2.81399 14.412 2.11866 13.896 2.33332 13.2967L3.21466 9.56137C3.26038 9.43291 3.26423 9.29327 3.22566 9.16248C3.1871 9.03169 3.10809 8.91648 2.99999 8.83337L0.586657 6.66204C0.0933234 6.28004 0.36799 5.50004 0.993323 5.50004H4.38466C4.51818 5.50049 4.6487 5.46038 4.75893 5.38502C4.86917 5.30967 4.95393 5.20262 5.00199 5.07804L6.38199 1.25537H6.38266Z" stroke="#C4CDD5" stroke-width="0.5" stroke-linecap="round" stroke-linejoin="round"/>
</svg>
